<svg xmlns="http://www.w3.org/2000/svg" viewBox="0 0 56 81.46"><title>calories</title><path d="M29.08,81.46C11.42,81.46,0,70,0,52.38c0-16.05,12.86-30,13.41-30.57a2,2,0,0,1,2-.57,2,2,0,0,1,1.44,1.47,46.85,46.85,0,0,0,3.61,10.5C22,31.69,25.17,27.46,26,19.73A37,37,0,0,0,24,2.79,2,2,0,0,1,27.06.42,100.54,100.54,0,0,1,44.79,18.73C49.6,25.45,56,36.14,56,51.29,56,69.05,44.93,81.46,29.08,81.46ZM13.67,29c-3.4,4.49-8.4,12.81-8.4,22.71,0,14.72,9.1,23.87,23.76,23.87,12.77,0,21.7-10.24,21.7-24.9,0-10.15-2.15-18.29-8.91-27.77-3.6-5.06-7.07-9.57-10.37-12.62.57,3.1-.07,7.16-.57,11.76-1.19,11-7.78,16.34-9.8,16.62l-.35,0C19.78,38.72,16.44,38.72,13.67,29Z"/></svg>