<svg xmlns="http://www.w3.org/2000/svg" xmlns:xlink="http://www.w3.org/1999/xlink" version="1.1" x="0px" y="0px" viewBox="0 0 100 125" enable-background="new 0 0 100 100" xml:space="preserve"><g><path d="M51.583,90.729c-17.667,0-29.083-11.416-29.083-29.083c0-16.042,12.86-29.984,13.408-30.569   c0.502-0.538,1.257-0.755,1.973-0.568c0.712,0.188,1.263,0.752,1.434,1.469c1.054,4.408,2.6,8.834,3.615,10.5   c1.602-1.513,4.737-5.748,5.582-13.476c1.055-9.643-1.984-16.868-2.016-16.94c-0.359-0.838-0.106-1.815,0.615-2.373   c0.72-0.557,1.727-0.56,2.448,0.001c0.425,0.33,10.49,8.198,17.733,18.312C72.104,34.723,78.5,45.409,78.5,60.562   C78.5,78.324,67.432,90.729,51.583,90.729z M36.424,36.737C32.835,41.45,26.5,51.241,26.5,61.646   c0,15.472,9.611,25.083,25.083,25.083c13.493,0,22.917-10.76,22.917-26.167c0-10.658-3.323-20.264-10.459-30.23   C60.236,25.02,55.517,20.28,52.026,17.08c0.602,3.251,0.991,7.514,0.462,12.357c-1.263,11.542-7.165,17.163-9.3,17.456   c-0.09,0.012-0.279,0.025-0.37,0.025C41.823,46.918,39.346,46.919,36.424,36.737z"/></g><text x="0" y="115" fill="#000000" font-size="5px" font-weight="bold" font-family="'Helvetica Neue', Helvetica, Arial-Unicode, Arial, Sans-serif">Created by Dima Gavrikov</text><text x="0" y="120" fill="#000000" font-size="5px" font-weight="bold" font-family="'Helvetica Neue', Helvetica, Arial-Unicode, Arial, Sans-serif">from the Noun Project</text></svg>