<svg xmlns:dc="http://purl.org/dc/elements/1.1/" xmlns:cc="http://creativecommons.org/ns#" xmlns:rdf="http://www.w3.org/1999/02/22-rdf-syntax-ns#" xmlns:svg="http://www.w3.org/2000/svg" xmlns="http://www.w3.org/2000/svg" xmlns:sodipodi="http://sodipodi.sourceforge.net/DTD/sodipodi-0.dtd" xmlns:inkscape="http://www.inkscape.org/namespaces/inkscape" fill="#000000" version="1.1" x="0px" y="0px" viewBox="0 0 100 125"><path style="font-size:medium;font-style:normal;font-variant:normal;font-weight:normal;font-stretch:normal;text-indent:0;text-align:start;text-decoration:none;line-height:normal;letter-spacing:normal;word-spacing:normal;text-transform:none;direction:ltr;block-progression:tb;writing-mode:lr-tb;text-anchor:start;baseline-shift:baseline;opacity:1;color:#000000;fill:#000000;fill-opacity:1;stroke:none;stroke-width:4;marker:none;visibility:visible;display:inline;overflow:visible;enable-background:accumulate;font-family:Sans;-inkscape-font-specification:Sans" d="M 49.78125 17.96875 A 2.0001999 2.0001999 0 0 0 48.59375 21.40625 C 49.589027 22.401527 49.909125 23.123471 50.03125 23.71875 C 50.153375 24.314029 50.09233 24.890493 49.84375 25.65625 C 49.346601 27.187764 47.893016 29.216598 48 32.0625 A 2.0009763 2.0009763 0 0 0 52 31.9375 C 51.95592 30.765009 52.888709 29.174463 53.625 26.90625 C 53.993145 25.772144 54.2714 24.412725 53.96875 22.9375 C 53.6661 21.462275 52.802323 19.989823 51.40625 18.59375 A 2.0001999 2.0001999 0 0 0 49.96875 17.96875 A 2.0001999 2.0001999 0 0 0 49.78125 17.96875 z M 41.8125 21.96875 A 2.0001999 2.0001999 0 0 0 40.4375 25.25 C 41.17848 26.176225 41.311307 26.758602 41.28125 27.5 C 41.25119 28.241398 40.92584 29.186234 40.5 30.28125 C 40.07416 31.376266 39.534393 32.632265 39.3125 34.125 C 39.090607 35.617735 39.29418 37.386131 40.28125 39.03125 A 2.0043897 2.0043897 0 0 0 43.71875 36.96875 C 43.205822 36.113869 43.159393 35.507265 43.28125 34.6875 C 43.403107 33.867735 43.80084 32.873734 44.25 31.71875 C 44.69916 30.563766 45.186307 29.258602 45.25 27.6875 C 45.31369 26.116398 44.82152 24.323775 43.5625 22.75 A 2.0001999 2.0001999 0 0 0 42 21.96875 A 2.0001999 2.0001999 0 0 0 41.8125 21.96875 z M 58.8125 21.96875 A 2.0001999 2.0001999 0 0 0 57.4375 25.25 C 58.17848 26.176225 58.311307 26.758602 58.28125 27.5 C 58.25119 28.241398 57.92584 29.186234 57.5 30.28125 C 57.07416 31.376266 56.534393 32.632265 56.3125 34.125 C 56.090607 35.617735 56.29418 37.386131 57.28125 39.03125 A 2.0043897 2.0043897 0 0 0 60.71875 36.96875 C 60.205822 36.113869 60.159393 35.507265 60.28125 34.6875 C 60.403107 33.867735 60.80084 32.873734 61.25 31.71875 C 61.69916 30.563766 62.186307 29.258602 62.25 27.6875 C 62.31369 26.116398 61.82152 24.323775 60.5625 22.75 A 2.0001999 2.0001999 0 0 0 59 21.96875 A 2.0001999 2.0001999 0 0 0 58.8125 21.96875 z M 50 40 C 46.709981 40 44 42.709981 44 46 C 44 47.273575 44.404495 48.460678 45.09375 49.4375 C 33.60572 51.589953 24.739866 61.159905 24 72.875 A 2.0001998 2.0001998 0 0 0 26 75 L 67 75 A 2.0001998 2.0001998 0 1 0 67 71 L 28.34375 71 C 30.051351 60.817945 39.001668 53 50 53 C 61.761667 53 71.291665 61.909178 72 73.125 A 2.0039024 2.0039024 0 1 0 76 72.875 C 75.260134 61.159904 66.39428 51.589953 54.90625 49.4375 C 55.595505 48.460678 56 47.273575 56 46 C 56 42.709981 53.29002 40 50 40 z M 50 44 C 51.128261 44 52 44.871741 52 46 C 52 47.128259 51.128261 48 50 48 C 48.87174 48 48 47.128259 48 46 C 48 44.871741 48.87174 44 50 44 z M 21.8125 78 A 2.0021961 2.0021961 0 1 0 22 82 L 78 82 A 2.0002 2.0002 0 1 0 78 78 L 22 78 A 2.0002 2.0002 0 0 0 21.8125 78 z "/><text x="0" y="115" fill="#000000" font-size="5px" font-weight="bold" font-family="'Helvetica Neue', Helvetica, Arial-Unicode, Arial, Sans-serif">Created by emma mitchell</text><text x="0" y="120" fill="#000000" font-size="5px" font-weight="bold" font-family="'Helvetica Neue', Helvetica, Arial-Unicode, Arial, Sans-serif">from the Noun Project</text></svg>