<svg xmlns="http://www.w3.org/2000/svg" xmlns:xlink="http://www.w3.org/1999/xlink" version="1.1" x="0px" y="0px" viewBox="0 0 100 125" enable-background="new 0 0 100 100" xml:space="preserve"><path d="M50,16.417c-18.519,0-33.584,15.065-33.584,33.583S31.481,83.583,50,83.583S83.584,68.518,83.584,50  S68.519,16.417,50,16.417z M50,78.583c-15.762,0-28.584-12.822-28.584-28.583S34.238,21.417,50,21.417S78.584,34.239,78.584,50  S65.762,78.583,50,78.583z M66,49.5H50.5V30.045c0-1.381-1.119-2.5-2.5-2.5s-2.5,1.119-2.5,2.5V52c0,1.381,1.119,2.5,2.5,2.5h18  c1.381,0,2.5-1.119,2.5-2.5S67.381,49.5,66,49.5z"/><text x="0" y="115" fill="#000000" font-size="5px" font-weight="bold" font-family="'Helvetica Neue', Helvetica, Arial-Unicode, Arial, Sans-serif">Created by amante de icono</text><text x="0" y="120" fill="#000000" font-size="5px" font-weight="bold" font-family="'Helvetica Neue', Helvetica, Arial-Unicode, Arial, Sans-serif">from the Noun Project</text></svg>