<?xml version="1.0" encoding="utf-8"?>
<!-- Generator: Adobe Illustrator 24.0.0, SVG Export Plug-In . SVG Version: 6.00 Build 0)  -->
<svg version="1.1" id="Layer_1" xmlns="http://www.w3.org/2000/svg" xmlns:xlink="http://www.w3.org/1999/xlink" x="0px" y="0px"
	 viewBox="0 0 60.1 64" style="enable-background:new 0 0 60.1 64;" xml:space="preserve">
<title>serve</title>
<path d="M29.9,0c-1.1,0.1-1.9,1.1-1.8,2.2c0,0.5,0.3,0.9,0.6,1.3c0.7,0.6,1.2,1.4,1.4,2.3c0.1,0.7,0,1.3-0.2,1.9
	c-0.5,1.5-2,3.6-1.8,6.4c0,1.1,1,2,2.1,1.9c1.1,0,2-1,1.9-2.1l0,0c0-1.2,0.9-2.8,1.6-5c0.5-1.3,0.6-2.7,0.3-4
	c-0.4-1.7-1.3-3.2-2.6-4.4C31.1,0.2,30.6,0,30.1,0H29.9z M21.9,4C20.8,4.1,20,5,20,6.1c0,0,0,0,0,0c0,0.4,0.2,0.8,0.5,1.1
	c0.6,0.6,0.9,1.4,0.9,2.3c-0.1,1-0.4,1.9-0.8,2.8c-0.5,1.2-0.9,2.5-1.2,3.8c-0.2,1.7,0.1,3.4,1,4.9c0.6,0.9,1.8,1.3,2.7,0.7
	s1.3-1.8,0.7-2.7l0,0c-0.4-0.7-0.6-1.5-0.4-2.3c0.2-1,0.6-2,1-3c0.6-1.3,0.9-2.6,1-4c0-1.8-0.6-3.5-1.7-4.9c-0.4-0.5-1-0.8-1.6-0.8
	H21.9z M38.9,4C37.8,4.1,37,5,37,6.1c0,0,0,0,0,0c0,0.4,0.2,0.8,0.5,1.1c0.6,0.6,0.9,1.4,0.8,2.3c-0.1,1-0.4,1.9-0.8,2.8
	c-0.5,1.2-0.9,2.5-1.2,3.8c-0.2,1.7,0.1,3.4,1,4.9c0.6,0.9,1.8,1.3,2.7,0.7c0.9-0.6,1.3-1.8,0.7-2.7c-0.4-0.7-0.6-1.5-0.4-2.3
	c0.2-1,0.6-2,1-3c0.6-1.3,0.9-2.6,1-4c0-1.8-0.6-3.5-1.7-4.9c-0.4-0.5-1-0.8-1.6-0.8H38.9z M30.1,22c-3.3,0-6,2.7-6,6
	c0,1.2,0.4,2.4,1.1,3.4C13.6,33.5,4.9,43.2,4.1,54.9C4,56,4.9,56.9,6,57h41.1c1.1,0,2-0.9,2-2s-0.9-2-2-2H8.4
	c1.8-10.5,11-18.1,21.7-18c11.5-0.1,21.1,8.7,22,20.1c0.1,1.1,1,1.9,2.1,1.9s1.9-1,1.9-2.1C55.2,43.2,46.5,33.5,35,31.5
	c0.7-1,1.1-2.2,1.1-3.5C36.1,24.7,33.4,22,30.1,22z M30.1,26c1.1,0,2,0.9,2,2s-0.9,2-2,2s-2-0.9-2-2S29,26,30.1,26z M1.9,60
	c-1.1,0.1-2,1-1.9,2.1c0.1,1.1,1,2,2.1,1.9h56c1.1,0,2-0.9,2-2s-0.9-2-2-2H1.9z"/>
</svg>
