<svg xmlns="http://www.w3.org/2000/svg" viewBox="0 0 259.37 287.45"><title>natsu_logo</title><path d="M33.79,83.86s-39.35,12-28.35,53,54,32,54,32,18,25,39,0c0,0,26,30,62,4,20,10,36,0,39-4,71,6,58-44,50-54s-25-12-25-12,19-32-5-46c5-21-5-32-27-29-25-20-40-17-56-10-45-30-64-6-71,10-42,22-39,64-17,76a71,71,0,0,0,25,8" fill="none" stroke="#e7f5c5" stroke-linecap="round" stroke-linejoin="round" stroke-width="7"/><line x1="39.44" y1="131.81" x2="52.44" y2="144.81" fill="none" stroke="#e7f5c5" stroke-linecap="round" stroke-linejoin="round" stroke-width="7"/><line x1="64.44" y1="74.81" x2="72.44" y2="83.81" fill="none" stroke="#e7f5c5" stroke-linecap="round" stroke-linejoin="round" stroke-width="7"/><path d="M116.44,28.81s-14,8-19,22,1,32,1,32" fill="none" stroke="#e7f5c5" stroke-linecap="round" stroke-linejoin="round" stroke-width="7"/><line x1="164.44" y1="32.81" x2="174.44" y2="42.81" fill="none" stroke="#e7f5c5" stroke-linecap="round" stroke-linejoin="round" stroke-width="7"/><path d="M162.44,63.81s13-2,22,7,9,21,9,21" fill="none" stroke="#e7f5c5" stroke-linecap="round" stroke-linejoin="round" stroke-width="7"/><line x1="169.44" y1="111.81" x2="179.44" y2="119.81" fill="none" stroke="#e7f5c5" stroke-linecap="round" stroke-linejoin="round" stroke-width="7"/><path d="M56.8,169.22s40.64,36.59,40.64,72.59-3,36,4,39,47,7,63-5c3-5-3-29,9-54s41.63-52.59,41.63-52.59" fill="none" stroke="#e7f5c5" stroke-linecap="round" stroke-linejoin="round" stroke-width="7"/><path d="M152.32,177.86l1.12,38.95s11.25-34.41,23.63-39.7" fill="none" stroke="#e7f5c5" stroke-linecap="round" stroke-linejoin="round" stroke-width="7"/><path d="M93.25,174.07s22.19,30.74,23.19,48.74c3-31,0-42.83,0-42.83" fill="none" stroke="#e7f5c5" stroke-linecap="round" stroke-linejoin="round" stroke-width="7"/></svg>