<svg xmlns="http://www.w3.org/2000/svg" viewBox="0 0 102.23 376.85"><title>natsu_logo</title><line x1="59.23" y1="78.57" x2="44.77" y2="78.57" fill="none" stroke="#e7f5c5" stroke-linecap="round" stroke-miterlimit="10" stroke-width="7"/><path d="M51.23,279.52c27,0,43-11,42-81s-27-197-36-195-50,141-46,240C12.23,261.52,24.23,279.52,51.23,279.52Z" fill="none" stroke="#e7f5c5" stroke-miterlimit="10" stroke-width="7"/><line x1="51.73" y1="279.02" x2="51.73" y2="330.02" fill="none" stroke="#e7f5c5" stroke-miterlimit="10" stroke-width="5"/><path d="M52.11,305.91S66.73,297,76.73,288s13,8,9,12c1-1,14,0,14,9s-7,9-13,9c0,8-1,20-14,12S52.11,305.91,52.11,305.91Z" fill="none" stroke="#e7f5c5" stroke-miterlimit="10" stroke-width="5"/><path d="M50.11,309.18S35.5,318.07,25.5,327.07s-13-8-9-12c-1,1-14,0-14-9s7-9,13-9c0-8,1-20,14-12S50.11,309.18,50.11,309.18Z" fill="none" stroke="#e7f5c5" stroke-miterlimit="10" stroke-width="5"/><path d="M51.94,326.74s8.89,14.61,17.89,24.61-8,13-12,9c1,1,0,14-9,14s-9-7-9-13c-8,0-20-1-12-14S51.94,326.74,51.94,326.74Z" fill="none" stroke="#e7f5c5" stroke-miterlimit="10" stroke-width="5"/><line x1="93.27" y1="207.57" x2="58.73" y2="207.57" fill="none" stroke="#e7f5c5" stroke-linecap="round" stroke-miterlimit="10" stroke-width="7"/><line x1="60.23" y1="190.57" x2="15.73" y2="190.57" fill="none" stroke="#e7f5c5" stroke-linecap="round" stroke-miterlimit="10" stroke-width="7"/><line x1="48.23" y1="207.57" x2="41.77" y2="207.57" fill="none" stroke="#e7f5c5" stroke-linecap="round" stroke-miterlimit="10" stroke-width="7"/><line x1="32.23" y1="160.57" x2="17.77" y2="160.57" fill="none" stroke="#e7f5c5" stroke-linecap="round" stroke-miterlimit="10" stroke-width="7"/><line x1="84.23" y1="128.57" x2="61.23" y2="128.57" fill="none" stroke="#e7f5c5" stroke-linecap="round" stroke-miterlimit="10" stroke-width="7"/><line x1="71.23" y1="160.57" x2="44.77" y2="160.57" fill="none" stroke="#e7f5c5" stroke-linecap="round" stroke-miterlimit="10" stroke-width="7"/><line x1="83.23" y1="112.57" x2="45.23" y2="112.57" fill="none" stroke="#e7f5c5" stroke-linecap="round" stroke-miterlimit="10" stroke-width="7"/></svg>