<svg xmlns="http://www.w3.org/2000/svg" viewBox="0 0 152.61 206.09"><title>natsu_logo</title><path d="M77.49,151.6c-2-14.78-12.2-58.12-63.52-63.09,17,11,24,12,23,34s-6,65,23,61c5,16,26,32,33,3,31-3,30-36,29-55s15-39,25-41-17-14-40,9c-17.73,17.72-25.36,42-27.92,52.17A.8.8,0,0,1,77.49,151.6Z" fill="none" stroke="#e7f5c5" stroke-linecap="round" stroke-miterlimit="10" stroke-width="7"/><path d="M113,94.33S107,4.51,79,3.51,41.85,96.45,41.85,96.45" fill="none" stroke="#e7f5c5" stroke-linecap="round" stroke-miterlimit="10" stroke-width="7"/><path d="M73,25.51s-10,13-14,48" fill="none" stroke="#e7f5c5" stroke-linecap="round" stroke-miterlimit="10" stroke-width="7"/></svg>