<svg xmlns="http://www.w3.org/2000/svg" viewBox="0 0 114.85 214.65"><title>natsu_logo</title><path d="M108.86,64.3s-7-42-38-36-25,47-25,47,13-10,16-14c7,11,13,14,13,14s10-12,12-17A22.47,22.47,0,0,0,108.86,64.3Z" fill="none" stroke="#e7f5c5" stroke-linecap="round" stroke-miterlimit="10" stroke-width="7"/><path d="M55.76,67.24s10.1,45.06-1.9,55.06-45,17-50,49,43,62,85,17S101.15,65,101.15,65" fill="none" stroke="#e7f5c5" stroke-linecap="round" stroke-miterlimit="10" stroke-width="7"/><path d="M38.86,149.3a33,33,0,0,0-19,19,19.73,19.73,0,0,0,3,19" fill="none" stroke="#e7f5c5" stroke-linecap="round" stroke-miterlimit="10" stroke-width="7"/><path d="M83.86,38.3c.58-.11,7.36,4.74,9,10" fill="none" stroke="#e7f5c5" stroke-linecap="round" stroke-miterlimit="10" stroke-width="5"/><path d="M68.3,28.89S61.86,13.3,70.86,5.3s9,3,5,10S70.25,26.73,72.56,28" fill="none" stroke="#e7f5c5" stroke-linecap="round" stroke-miterlimit="10" stroke-width="5"/></svg>