<svg xmlns="http://www.w3.org/2000/svg" viewBox="0 0 127.11 122.95"><title>natsu_logo</title><path d="M64.35,4A1,1,0,0,0,62.66,4c-5.11,8.18-29.89,50-28.09,88.57,2,43,58,28,58,0C92.57,65.32,73.68,22.05,64.35,4Z" fill="none" stroke="#e7f5c5" stroke-linecap="round" stroke-miterlimit="10" stroke-width="7"/><path d="M78.57,3.53s-1,13,15,27,29,32,30,50-16,28-26,27" fill="none" stroke="#e7f5c5" stroke-linecap="round" stroke-miterlimit="10" stroke-width="7"/><path d="M48.54,3.53s1,13-15,27-29,32-30,50,16,28,26,27" fill="none" stroke="#e7f5c5" stroke-linecap="round" stroke-miterlimit="10" stroke-width="7"/><path d="M54.57,57.53s-5,8-5,21,4,22,7,22" fill="none" stroke="#e7f5c5" stroke-linecap="round" stroke-miterlimit="10" stroke-width="7"/></svg>