<svg xmlns="http://www.w3.org/2000/svg" viewBox="0 0 170.11 528"><title>natsu_logo</title><path d="M108.87,480.5v-276c0-35-76-177-76-177l-28,12s70,132,68,179,0,267,0,267S97.87,493.5,108.87,480.5Z" fill="none" stroke="#e7f5c5" stroke-linecap="round" stroke-miterlimit="10" stroke-width="7"/><path d="M92.57,151.1s37.3-104.6,47.3-120.6a73.75,73.75,0,0,1,26,12s-57,138-57,162" fill="none" stroke="#e7f5c5" stroke-linecap="round" stroke-miterlimit="10" stroke-width="7"/><path d="M101.83,125.52s-10-103-14-107h-23S74.42,93,73.65,108.73" fill="none" stroke="#e7f5c5" stroke-linecap="round" stroke-miterlimit="10" stroke-width="7"/><polyline points="78.88 18.5 78.87 3.5 108.87 3.5 111.43 99.56" fill="none" stroke="#e7f5c5" stroke-linecap="round" stroke-miterlimit="10" stroke-width="7"/><line x1="13.8" y1="35.67" x2="38.87" y2="78.5" fill="none" stroke="#e7f5c5" stroke-linecap="round" stroke-miterlimit="10" stroke-width="7"/><line x1="136.87" y1="81.5" x2="118.87" y2="133.5" fill="none" stroke="#e7f5c5" stroke-linecap="round" stroke-miterlimit="10" stroke-width="7"/><line x1="84.87" y1="291.5" x2="84.87" y2="321.5" fill="none" stroke="#e7f5c5" stroke-linecap="round" stroke-miterlimit="10" stroke-width="7"/><line x1="84.87" y1="333.5" x2="84.87" y2="470.5" fill="none" stroke="#e7f5c5" stroke-linecap="round" stroke-miterlimit="10" stroke-width="7"/><path d="M98.69,486.74s4.18,23.76,12.18,27.76" fill="none" stroke="#e7f5c5" stroke-linecap="round" stroke-miterlimit="10" stroke-width="7"/><path d="M80.84,487.94s1,21.56-11,24.56" fill="none" stroke="#e7f5c5" stroke-linecap="round" stroke-miterlimit="10" stroke-width="7"/><path d="M89.63,487.94s2.75,33.56,0,36.56" fill="none" stroke="#e7f5c5" stroke-linecap="round" stroke-miterlimit="10" stroke-width="7"/></svg>