<svg xmlns="http://www.w3.org/2000/svg" viewBox="0 0 104 206.8"><title>natsu_logo</title><path d="M100.5,3.92v199s-97-10-97-99S100.5,3.92,100.5,3.92Z" fill="none" stroke="#e7f5c5" stroke-linecap="round" stroke-miterlimit="10" stroke-width="7"/><path d="M100.5,20.77s-82,8.15-82,82.15,82,82.18,82,82.18" fill="none" stroke="#e7f5c5" stroke-linecap="round" stroke-miterlimit="10" stroke-width="7"/><path d="M84.5,45.92s-11-7-19,1-8,15-3,20c4.13,4.13,27.37,26.35,35.33,34a.93.93,0,0,0,1.53-1c-3.53-10.9-14-44-14.86-54-1-12,16-10.61,16-10.61" fill="none" stroke="#e7f5c5" stroke-linecap="round" stroke-miterlimit="10" stroke-width="4"/><path d="M47,90.61s-13.47.31-12.47,15.31,16,11,20,10c3.39-.85,34.1-9.6,43.37-12.25a.68.68,0,0,0-.05-1.32C89,100.47,60.73,94.44,51.5,91.92c-11-3-14-10-9-20s18.09-7.39,18.09-7.39" fill="none" stroke="#e7f5c5" stroke-linecap="round" stroke-miterlimit="10" stroke-width="4"/><path d="M62.05,139.12s-7.55,14.8,5.45,20.8,18-2,22-17c3.06-11.49,7.89-28.85,10-36.34a.91.91,0,0,0-1.54-.86c-5.6,6-19.13,20.44-28.44,28.2-12,10-21,13-27,2S48,117.09,48,117.09" fill="none" stroke="#e7f5c5" stroke-linecap="round" stroke-miterlimit="10" stroke-width="4"/><path d="M100.5,170.8s-19.12,3.38-17.06-13.25" fill="none" stroke="#e7f5c5" stroke-linecap="round" stroke-miterlimit="10" stroke-width="4"/></svg>