<svg xmlns="http://www.w3.org/2000/svg" viewBox="0 0 162.32 179.94"><title>natsu_logo</title><path d="M76.52,4.21c27.64-4.6,32,14,51,30s38,36,29,55-42,10-80,11-74,6-73-18,14-33,36-50S70.52,5.21,76.52,4.21Z" fill="none" stroke="#e7f5c5" stroke-miterlimit="10" stroke-width="7"/><path d="M31.52,52.21s-21,18-16,30,31,8,31,8" fill="none" stroke="#e7f5c5" stroke-linecap="round" stroke-miterlimit="10" stroke-width="6"/><line x1="39.52" y1="46.21" x2="45.52" y2="40.21" fill="none" stroke="#e7f5c5" stroke-linecap="round" stroke-miterlimit="10" stroke-width="6"/><path d="M60.17,101.48s-10.65,46.73-2.65,62.73,32,14,42,7,12-20,8-40-3.42-30.45-3.42-30.45" fill="none" stroke="#e7f5c5" stroke-miterlimit="10" stroke-width="7"/><path d="M69.52,120.21s-3,19-3,30,8,14,8,14" fill="none" stroke="#e7f5c5" stroke-linecap="round" stroke-miterlimit="10" stroke-width="6"/></svg>