<svg xmlns="http://www.w3.org/2000/svg" viewBox="0 0 221.96 287.26"><title>natsu_logo</title><path d="M144.53,257.16s72.93-23,72.93-107.48S71.59,61.39,67.75,26.84c3.84,38.39-49.9,72.94-61.41,122.84S37.05,280.19,144.53,257.16Z" fill="none" stroke="#e7f5c5" stroke-linecap="round" stroke-miterlimit="10" stroke-width="9"/><path d="M142.61,255.24s26.87-23,34.54-46.06,7.68-84.45-46.06-119-63.2-61.52-63.2-61.52-7.81,59.6-30.84,109.5S67.75,257.16,142.61,255.24Z" fill="none" stroke="#e7f5c5" stroke-miterlimit="10" stroke-width="2"/><path d="M136.75,258.65s-1.82-41.8-28.69-87.86S73.51,44.12,73.51,44.12s44.15,48,82.53,86.36S159.67,248.63,136.75,258.65Z" fill="none" stroke="#e7f5c5" stroke-miterlimit="10" stroke-width="4"/><path d="M133,259.27s-9.6,7.48-13.43,19S133,276.35,133,264.83c0-42.39-19.19-42.22-46.06-99.8S71.59,42.2,71.59,42.2" fill="none" stroke="#e7f5c5" stroke-miterlimit="10" stroke-width="4"/><path d="M136.85,257.16s15.35,11.51,15.35,19.19S136.85,264.83,136.85,257.16Z" fill="none" stroke="#e7f5c5" stroke-miterlimit="10" stroke-width="4"/><path d="M136.85,261s-7.68,15.35,0,23S136.85,261,136.85,261Z" fill="none" stroke="#e7f5c5" stroke-miterlimit="10" stroke-width="4"/><path d="M69.14,33S56.24,7.65,63.92,3.81,69.14,33,69.14,33Z" fill="none" stroke="#e7f5c5" stroke-miterlimit="10" stroke-width="7"/></svg>