<svg xmlns="http://www.w3.org/2000/svg" viewBox="0 0 158.49 258.03"><title>natsu_logo</title><path d="M80.76,47.5s31-7,45,53c5,18,32,40,29,83s-34,72-53,71-16-9-21-8-13,16-39,2-50-54-32-98,23-37,34-70S80.76,47.5,80.76,47.5Z" fill="none" stroke="#e7f5c5" stroke-linecap="round" stroke-miterlimit="10" stroke-width="7"/><path d="M55.76,3.5c26,16,23,44,23,44s7-45,72-34c-13,23-10.23,45-63.62,34" fill="none" stroke="#e7f5c5" stroke-linecap="round" stroke-miterlimit="10" stroke-width="7"/><path d="M80.76,47.5s20-15,33-17" fill="none" stroke="#e7f5c5" stroke-linecap="round" stroke-miterlimit="10" stroke-width="7"/><path d="M65.76,66.5s4,6,15,6" fill="none" stroke="#e7f5c5" stroke-linecap="round" stroke-miterlimit="10" stroke-width="7"/><line x1="115.76" y1="121.5" x2="121.76" y2="130.5" fill="none" stroke="#e7f5c5" stroke-linecap="round" stroke-miterlimit="10" stroke-width="7"/><path d="M130.76,141.5s14,21,7,49" fill="none" stroke="#e7f5c5" stroke-linecap="round" stroke-miterlimit="10" stroke-width="7"/></svg>