<svg xmlns="http://www.w3.org/2000/svg" viewBox="0 0 155.01 200.92"><title>natsu_logo</title><path d="M41.75,75.36s9-33,37-33,42,33,42,33" fill="none" stroke="#e7f5c5" stroke-linecap="round" stroke-miterlimit="10" stroke-width="7"/><path d="M106.92,55.23s38.83-5.87,43.83,29.13-16,86-30,98-22,5-22,5-10,9-18,10-17-11-17-11-7,6-19,5-30.17-39.71-38-71c-5-20-7-60,15-65s32.33-1.87,32.33-1.87" fill="none" stroke="#e7f5c5" stroke-linecap="round" stroke-miterlimit="10" stroke-width="7"/><path d="M78.75,42.36S73.2,32.26,91.93,8.85c4-5-12-6-14-5s-11.87,18-3.44,38.51" fill="none" stroke="#e7f5c5" stroke-linecap="round" stroke-miterlimit="10" stroke-width="7"/><path d="M63.75,186.36s-10-14-12-23" fill="none" stroke="#e7f5c5" stroke-linecap="round" stroke-miterlimit="10" stroke-width="7"/><path d="M98.75,187.36s8-12,11-18" fill="none" stroke="#e7f5c5" stroke-linecap="round" stroke-miterlimit="10" stroke-width="7"/></svg>