<svg xmlns="http://www.w3.org/2000/svg" viewBox="0 0 105.92 232.51"><title>natsu_logo</title><path d="M42.13,229.51s17-69,11-110,1-58,1-58" fill="none" stroke="#e7f5c5" stroke-linecap="round" stroke-miterlimit="10" stroke-width="6"/><path d="M50.18,188s27.95,5.56,42.95-41.44,11-83-6-99-37-34-37-41-16-4-34,33-15,71-2,96,18,39,22,47S50.18,188,50.18,188Z" fill="none" stroke="#e7f5c5" stroke-linecap="round" stroke-miterlimit="10" stroke-width="7"/><path d="M29.13,77.51S45.83,84.79,51,98.65c0,0,6.15-16.14,20.15-20.14" fill="none" stroke="#e7f5c5" stroke-linecap="round" stroke-miterlimit="10" stroke-width="4"/><path d="M86.13,110.51s-30.44,6.89-31.72,31" fill="none" stroke="#e7f5c5" stroke-linecap="round" stroke-miterlimit="10" stroke-width="4"/><path d="M21.13,110.51S50.6,120,54.36,143.77" fill="none" stroke="#e7f5c5" stroke-linecap="round" stroke-miterlimit="10" stroke-width="4"/></svg>