<svg xmlns="http://www.w3.org/2000/svg" viewBox="0 0 99.59 136.89"><title>natsu_logo</title><path d="M45.44,116.39s-1-43,50-44C89.44,108.39,75.44,114.39,45.44,116.39Z" fill="#e7f5c5" stroke="#e7f5c5" stroke-linecap="round" stroke-miterlimit="10" stroke-width="7"/><path d="M45.44,116.39s-37-2-41-38,6-54,6-54,27.84,14.91,33,29.87C35,74.43,45.44,116.39,45.44,116.39Z" fill="#e7f5c5" stroke="#e7f5c5" stroke-linecap="round" stroke-miterlimit="10" stroke-width="7"/><path d="M43.44,54.39l0-.13a22.49,22.49,0,0,1,2-3.87c12-18,39-26,39-26s10.37,19.27,7.69,48.13" fill="none" stroke="#e7f5c5" stroke-linecap="round" stroke-miterlimit="10" stroke-width="7"/><path d="M56.34,39.07S31.46,23.61,34.3,3.58c28,.77,38.42,2.56,47.38,21.55" fill="none" stroke="#e7f5c5" stroke-linecap="round" stroke-miterlimit="10" stroke-width="7"/><path d="M13.15,25.82S14.7,19.08,34.07,9.23" fill="none" stroke="#e7f5c5" stroke-linecap="round" stroke-miterlimit="10" stroke-width="7"/><polyline points="62.04 114.4 62.04 133.39 32.44 133.39 32.44 113.48" fill="none" stroke="#e7f5c5" stroke-linecap="round" stroke-miterlimit="10" stroke-width="7"/></svg>