<svg xmlns="http://www.w3.org/2000/svg" viewBox="0 0 194.5 180.75"><title>natsu_logo</title><path d="M79.88,26.25s10-15,18-22c20,11,20,25,20,25s17-3,29,0c-10,9-25,15-25,15s21,19,21,27c-30-6-44-17-44-17s-30,16-42,17a46.32,46.32,0,0,1,18-28s-23-8-29-15C61.88,25.25,79.88,26.25,79.88,26.25Z" fill="none" stroke="#e7f5c5" stroke-linecap="round" stroke-miterlimit="10" stroke-width="7"/><path d="M146.88,29.25s41,3,44,59-52,88-74,87c-13-2-9-7-15-7s-10,9-24,9-80-14-74-89c4-42,30.26-56.75,47.13-55.88" fill="none" stroke="#e7f5c5" stroke-linecap="round" stroke-miterlimit="10" stroke-width="7"/><path d="M96.88,35.25h3" fill="none" stroke="#e7f5c5" stroke-linecap="round" stroke-miterlimit="10" stroke-width="7"/><path d="M22.88,97.25s-1,10,3,17" fill="none" stroke="#e7f5c5" stroke-linecap="round" stroke-miterlimit="10" stroke-width="7"/><path d="M32.88,127.25s9,27,48,27" fill="none" stroke="#e7f5c5" stroke-linecap="round" stroke-miterlimit="10" stroke-width="7"/></svg>