<svg xmlns="http://www.w3.org/2000/svg" viewBox="0 0 147.13 394.31"><title>natsu_logo</title><path d="M75.55,138.45s66-1,68,53-33,72-57,76c-8,50-11,92-11,92l-12-92s-62-6-60-69S59.55,136.45,75.55,138.45Z" fill="none" stroke="#e7f5c5" stroke-linecap="round" stroke-miterlimit="10" stroke-width="7"/><path d="M73.55,137.45s-21-77-40-97c9-7,12-16,21,6S73.55,137.45,73.55,137.45Z" fill="none" stroke="#e7f5c5" stroke-linecap="round" stroke-miterlimit="10" stroke-width="7"/><path d="M73.55,137.45s21-90,29-102,21-3,12,10S73.55,137.45,73.55,137.45Z" fill="none" stroke="#e7f5c5" stroke-linecap="round" stroke-miterlimit="10" stroke-width="7"/><path d="M73.55,137.45s-15-106-20-121,12-19,15-1S73.55,137.45,73.55,137.45Z" fill="none" stroke="#e7f5c5" stroke-linecap="round" stroke-miterlimit="10" stroke-width="7"/><path d="M73.55,137.45s2-116,11-124,12,3,8,17S75.55,61.45,73.55,137.45Z" fill="none" stroke="#e7f5c5" stroke-linecap="round" stroke-miterlimit="10" stroke-width="7"/><path d="M126.55,184.45s-6,12-41,13" fill="none" stroke="#e7f5c5" stroke-linecap="round" stroke-miterlimit="10" stroke-width="7"/><path d="M18.55,212.45s38,25,108,2" fill="none" stroke="#e7f5c5" stroke-linecap="round" stroke-miterlimit="10" stroke-width="7"/><path d="M25.55,229.45s11,8,31,8" fill="none" stroke="#e7f5c5" stroke-linecap="round" stroke-miterlimit="10" stroke-width="7"/><path d="M124.55,200.45s-3,4-16,6" fill="none" stroke="#e7f5c5" stroke-linecap="round" stroke-miterlimit="10" stroke-width="7"/></svg>